Coordinates
version=1
nRows=4
nColumns=63
inDegrees=yes

Units are S.I. units (second, meters, Newtons, ...)
If the header above contains a line with 'inDegrees', this indicates whether rotational values are in degrees (yes) or radians (no).

endheader
time	pelvis_tilt	pelvis_list	pelvis_rotation	pelvis_tx	pelvis_ty	pelvis_tz	hip_flexion_r	hip_adduction_r	hip_rotation_r	knee_angle_r	knee_angle_r_beta	ankle_angle_r	subtalar_angle_r	mtp_angle_r	hip_flexion_l	hip_adduction_l	hip_rotation_l	knee_angle_l	knee_angle_l_beta	ankle_angle_l	subtalar_angle_l	mtp_angle_l	L5_S1_Flex_Ext	L5_S1_Lat_Bending	L5_S1_axial_rotation	L4_L5_Flex_Ext	L4_L5_Lat_Bending	L4_L5_axial_rotation	L3_L4_Flex_Ext	L3_L4_Lat_Bending	L3_L4_axial_rotation	L2_L3_Flex_Ext	L2_L3_Lat_Bending	L2_L3_axial_rotation	L1_L2_Flex_Ext	L1_L2_Lat_Bending	L1_L2_axial_rotation	L1_T12_Flex_Ext	L1_T12_Lat_Bending	L1_T12_axial_rotation	Abs_r3	Abs_r2	Abs_r1	Abs_t1	Abs_t2	neck_flexion	neck_bending	neck_rotation	arm_flex_r	arm_add_r	arm_rot_r	elbow_flex_r	pro_sup_r	wrist_flex_r	wrist_dev_r	arm_flex_l	arm_add_l	arm_rot_l	elbow_flex_l	pro_sup_l	wrist_flex_l	wrist_dev_l
      0.86274510	      1.24849716	      7.80056389	     80.33220919	      0.21813892	      0.99186457	      0.42727263	    -13.56651745	      5.02706024	     -7.15505257	      8.01057500	      0.13981091	     27.29977408	    -13.70758745	      0.00000000	    -15.21763810	     -4.27667987	     10.83232124	      1.49644506	      0.02611789	     31.66427588	     -0.28913044	      0.00000000	     -0.16636354	      0.07650011	     -0.63549286	     -0.30895372	      0.10174515	     -0.67521117	     -0.27331865	      0.18600237	     -0.67521117	     -0.19013689	      0.18600237	     -0.55605626	     -0.15448518	      0.15599903	     -0.51633795	     -0.09506012	      0.11849867	     -0.47661965	     -1.18831810	      0.86538457	     -3.53442066	      0.00000000	      0.00000000	     -3.28977272	      5.19729728	     -1.85321745	     18.76624360	    -17.46137877	     24.53899068	    129.79721882	     46.06930593	    -31.70331266	     16.65308908	      9.00087033	    -15.29428158	     17.21525238	    114.92654011	     43.81471620	    -11.84649477	      8.18949396
      0.88235294	      1.17685218	      7.90664550	     80.45403282	      0.21860893	      0.99194260	      0.42732600	    -13.75097771	      5.08176393	     -6.24769834	      7.74121033	      0.13510961	     27.19542424	    -14.76319091	      0.00000000	    -15.29112696	     -4.20982474	     12.42879541	      1.51942255	      0.02651893	     31.22250233	     -2.55523214	      0.00000000	     -0.16444681	      0.06251655	     -0.71333630	     -0.30539417	      0.08314701	     -0.75791982	     -0.27016967	      0.15200274	     -0.75791982	     -0.18794626	      0.15200274	     -0.62416927	     -0.15270531	      0.12748375	     -0.57958575	     -0.09396491	      0.09683814	     -0.53500223	     -1.17462713	      0.70719972	     -3.96736252	      0.00000000	      0.00000000	     -3.56079017	      5.39462382	     -1.32909717	     18.95800404	    -16.97272333	     24.37706581	    129.03967833	     54.50363270	    -30.71912029	     17.80845122	      8.62564389	    -15.66665780	     16.77689674	    115.40921255	     52.05976813	    -11.57716280	     10.03263152
      0.90196078	      1.17365725	      8.04673481	     80.86727004	      0.21848615	      0.99199534	      0.42724661	    -13.96654057	      5.20298711	     -6.44371243	      7.55069378	      0.13178447	     27.27483067	    -14.73895817	      0.00000000	    -15.29210897	     -4.28987904	     12.89339274	      1.68939877	      0.02948557	     31.30083573	     -2.85844786	      0.00000000	     -0.16307372	      0.06430678	     -0.86265274	     -0.30284420	      0.08552801	     -0.91656853	     -0.26791381	      0.15635549	     -0.91656853	     -0.18637695	      0.15635549	     -0.75482114	     -0.15143025	      0.13113438	     -0.70090535	     -0.09318032	      0.09961120	     -0.64698955	     -1.16481924	      0.72745110	     -4.79781572	      0.00000000	      0.00000000	     -3.97897364	      5.32756918	     -0.63388664	     19.10849012	    -16.76836620	     24.82246614	    128.32218126	     57.25691977	    -30.28034206	     15.44786766	      8.18368674	    -16.06621791	     16.74910659	    115.82850170	     53.11184525	    -11.01036860	      9.94893279
      0.92156863	      1.24587461	      8.22265510	     80.86375433	      0.21876452	      0.99192385	      0.42693637	    -14.15293938	      5.26896063	     -6.27099931	      7.63190672	      0.13320190	     27.39161504	    -14.65932422	      0.00000000	    -15.45119482	     -4.32767557	     12.84425352	      1.79834552	      0.03138705	     31.46890500	     -2.95738843	      0.00000000	     -0.16871664	      0.07151096	     -0.91334693	     -0.31332367	      0.09510958	     -0.97043112	     -0.27718457	      0.17387175	     -0.97043112	     -0.19282625	      0.17387175	     -0.79917857	     -0.15667027	      0.14582515	     -0.74209438	     -0.09640469	      0.11077048	     -0.68501020	     -1.20512608	      0.80894630	     -5.07976164	      0.00000000	      0.00000000	     -4.21482801	      5.28544775	     -0.54279483	     18.94991614	    -16.75774748	     24.70840654	    128.39525962	     57.70520449	    -30.26677611	     15.16436670	      7.88014235	    -16.29002328	     16.86690080	    116.24095681	     53.30352958	    -10.84327670	      9.90662539
